<svg width="113" height="27" viewBox="0 0 113 27" fill="none" xmlns="http://www.w3.org/2000/svg">
<path d="M22.2069 0.929688H4.7044C2.5075 0.929688 0.726562 2.71063 0.726562 4.90753V22.41C0.726562 24.6069 2.5075 26.3879 4.7044 26.3879H22.2069C24.4038 26.3879 26.1847 24.6069 26.1847 22.41V4.90753C26.1847 2.71063 24.4038 0.929688 22.2069 0.929688Z" fill="#202020"/>
<path d="M6.41098 16.0877C5.46858 16.0877 4.70479 16.8515 4.70479 17.7939C4.70479 18.7363 5.46861 19.5001 6.41098 19.5001H14.5064C13.7018 19.3627 13.0892 18.6379 13.0892 17.7939C13.0892 16.9499 13.7018 16.2252 14.5064 16.0877H6.41098Z" fill="#00DD93"/>
<path d="M10.8586 20.519C10.8586 21.4614 10.0947 22.2252 9.15237 22.2252C8.21 22.2252 7.44618 21.4614 7.44618 20.519V12.4237C7.58364 13.2283 8.30838 13.8408 9.15237 13.8408C9.99637 13.8408 10.7211 13.2283 10.8586 12.4237V20.519Z" fill="#00B579"/>
<path d="M13.1415 6.67848C13.1415 7.47665 13.7879 8.08151 14.5156 8.29716C14.0194 8.31712 13.1445 8.48809 12.5717 8.91375C12.5419 8.93588 12.5115 8.95711 12.4798 8.97633C12.2882 9.0923 11.4382 9.59831 11.0694 10.7644C11.0694 10.7644 10.8585 11.7048 10.8585 12.4575C10.8585 12.4575 10.6695 13.8193 9.25944 13.8709C7.83288 13.9235 7.45046 12.5993 7.44609 12.4393C7.44609 12.4393 7.36815 10.4117 8.00157 9.08517C8.63467 7.75903 9.75 6.28566 11.3828 5.61281C13.0155 4.93964 13.6355 4.96828 14.9016 4.90729V4.9184C13.9296 4.9184 13.1415 5.70649 13.1415 6.67852L13.1415 6.67848Z" fill="#1ED6A1"/>
<path d="M22.0868 11.9374H22.0723C21.9631 11.0995 21.2515 10.4525 20.3903 10.4525C19.5291 10.4525 18.8179 11.0994 18.7087 11.9374H18.6609C18.3944 8.48522 14.9021 8.33867 14.9021 8.33867C13.9301 8.33867 13.142 7.57283 13.142 6.62842C13.142 5.684 13.9301 4.91852 14.9021 4.91852C15.017 4.92864 15.1299 4.93873 15.2414 4.95019C16.8361 5.11124 18.1043 5.44986 19.9315 7.0944C21.8863 8.85385 22.0868 11.9374 22.0868 11.9374Z" fill="#00F5AA"/>
<path d="M15.1012 19.5004C15.1066 19.5004 15.1119 19.5002 15.1173 19.4997C15.2935 19.483 18.2858 19.1732 19.9921 17.2755C21.6357 15.4476 21.8843 14.0654 22.0445 12.4706C22.056 12.3591 22.066 12.2462 22.076 12.1313C22.0756 11.1593 21.3096 10.3716 20.3653 10.3721C19.4208 10.3725 18.6554 11.161 18.6559 12.133C18.6559 12.133 18.5111 15.7465 15.0591 16.0147C15.0591 16.0147 14.8309 16.0357 14.4961 16.0598C13.5949 16.1248 12.8966 16.8744 12.8966 17.7779C12.8966 18.7292 13.6678 19.5004 14.6191 19.5004H15.1012H15.1012Z" fill="#74F7C9"/>
<path d="M35.2814 19.1588V7.87885H39.8404C39.95 7.87885 40.0858 7.88407 40.2477 7.89451C40.4096 7.89973 40.5637 7.9154 40.7099 7.94151C41.3365 8.04073 41.8588 8.25484 42.2765 8.58384C42.6995 8.91284 43.0155 9.328 43.2244 9.82933C43.4332 10.3307 43.5377 10.8842 43.5377 11.49C43.5377 12.101 43.4332 12.6572 43.2244 13.1585C43.0155 13.6598 42.6995 14.075 42.2765 14.404C41.8588 14.733 41.3365 14.9471 40.7099 15.0463C40.5637 15.0672 40.407 15.0829 40.2399 15.0933C40.078 15.1037 39.9448 15.109 39.8404 15.109H36.9186V19.1588H35.2814ZM36.9186 13.558H39.7777C39.8822 13.558 39.997 13.5528 40.1224 13.5423C40.2529 13.5319 40.3757 13.5136 40.4905 13.4875C40.8248 13.4091 41.0937 13.2655 41.2974 13.0566C41.501 12.8425 41.6473 12.5971 41.736 12.3203C41.8248 12.0435 41.8692 11.7668 41.8692 11.49C41.8692 11.2132 41.8248 10.939 41.736 10.6675C41.6473 10.3907 41.501 10.1479 41.2974 9.939C41.0937 9.72489 40.8248 9.57867 40.4905 9.50034C40.3757 9.469 40.2529 9.44811 40.1224 9.43767C39.997 9.42722 39.8822 9.422 39.7777 9.422H36.9186V13.558ZM45.1036 19.1588V10.6988H46.5606V12.7512L46.3569 12.4848C46.4614 12.2133 46.5972 11.9652 46.7643 11.7407C46.9314 11.5109 47.1246 11.3229 47.3439 11.1767C47.558 11.02 47.7957 10.8999 48.0568 10.8163C48.3231 10.7276 48.5946 10.6753 48.8714 10.6597C49.1482 10.6388 49.4145 10.6518 49.6704 10.6988V12.2342C49.3936 12.161 49.0855 12.1402 48.7461 12.1715C48.4119 12.2028 48.1038 12.3099 47.8218 12.4927C47.5554 12.665 47.3439 12.8739 47.1873 13.1193C47.0358 13.3648 46.9262 13.6389 46.8583 13.9418C46.7904 14.2395 46.7564 14.5554 46.7564 14.8896V19.1588H45.1036ZM54.7613 19.3938C53.9205 19.3938 53.1816 19.211 52.5445 18.8454C51.9126 18.4747 51.4191 17.9603 51.064 17.3023C50.7141 16.6391 50.5392 15.8714 50.5392 14.9993C50.5392 14.075 50.7115 13.2734 51.0562 12.5945C51.4061 11.9156 51.8917 11.3908 52.5132 11.02C53.1346 10.6492 53.8579 10.4638 54.683 10.4638C55.5447 10.4638 56.2784 10.6649 56.8841 11.067C57.4899 11.4639 57.9416 12.0305 58.2393 12.7668C58.5422 13.5031 58.6623 14.3779 58.5996 15.391H56.9625V14.7956C56.952 13.8139 56.764 13.088 56.3985 12.618C56.0381 12.148 55.4872 11.913 54.7457 11.913C53.9258 11.913 53.3096 12.1715 52.897 12.6885C52.4844 13.2055 52.2782 13.9523 52.2782 14.9288C52.2782 15.8584 52.4844 16.579 52.897 17.0908C53.3096 17.5973 53.9049 17.8506 54.683 17.8506C55.1948 17.8506 55.636 17.7357 56.0068 17.506C56.3828 17.271 56.6753 16.9367 56.8841 16.5033L58.49 17.0125C58.161 17.7697 57.6623 18.3572 56.9938 18.7749C56.3254 19.1875 55.5812 19.3938 54.7613 19.3938ZM51.7455 15.391V14.1141H57.785V15.391H51.7455ZM64.0991 19.3938C63.2896 19.3938 62.6108 19.1979 62.0624 18.8063C61.5141 18.4094 61.0989 17.8741 60.8169 17.2005C60.5349 16.5268 60.3939 15.767 60.3939 14.921C60.3939 14.075 60.5323 13.3151 60.8091 12.6415C61.0911 11.9678 61.5037 11.4378 62.0468 11.0513C62.5951 10.6597 63.2688 10.4638 64.0678 10.4638C64.8615 10.4638 65.5456 10.6597 66.1201 11.0513C66.6997 11.4378 67.1462 11.9678 67.4596 12.6415C67.7729 13.3099 67.9296 14.0698 67.9296 14.921C67.9296 15.767 67.7729 16.5294 67.4596 17.2083C67.1515 17.882 66.7102 18.4146 66.1357 18.8063C65.5665 19.1979 64.8876 19.3938 64.0991 19.3938ZM60.1198 22.9188V10.6988H61.5768V16.7853H61.7648V22.9188H60.1198ZM63.8719 17.9133C64.3941 17.9133 64.825 17.7801 65.1644 17.5138C65.5091 17.2475 65.765 16.8897 65.9321 16.4406C66.1044 15.9863 66.1906 15.4797 66.1906 14.921C66.1906 14.3674 66.1044 13.8661 65.9321 13.417C65.765 12.9679 65.5065 12.6102 65.1566 12.3438C64.8067 12.0775 64.3602 11.9443 63.8171 11.9443C63.3053 11.9443 62.8823 12.0697 62.5481 12.3203C62.2191 12.571 61.9737 12.9209 61.8118 13.37C61.6551 13.8191 61.5768 14.3361 61.5768 14.921C61.5768 15.5059 61.6551 16.0229 61.8118 16.472C61.9684 16.9211 62.2165 17.2736 62.5559 17.5295C62.8954 17.7853 63.334 17.9133 63.8719 17.9133ZM69.8158 19.1588V7.87885H71.453V19.1588H69.8158ZM79.7429 19.1588V14.9993C79.7429 14.6703 79.7142 14.3335 79.6567 13.9888C79.6045 13.6389 79.5001 13.3151 79.3434 13.0175C79.192 12.7198 78.9752 12.4796 78.6932 12.2968C78.4165 12.114 78.0535 12.0227 77.6044 12.0227C77.312 12.0227 77.0352 12.0723 76.7741 12.1715C76.513 12.2655 76.2832 12.4195 76.0848 12.6337C75.8915 12.8478 75.7375 13.1298 75.6226 13.4796C75.5129 13.8295 75.4581 14.2551 75.4581 14.7565L74.4398 14.3726C74.4398 13.605 74.5834 12.9287 74.8706 12.3438C75.1578 11.7537 75.5704 11.2942 76.1083 10.9652C76.6461 10.6362 77.2963 10.4717 78.0587 10.4717C78.6436 10.4717 79.1345 10.5657 79.5314 10.7537C79.9283 10.9417 80.2495 11.1897 80.4949 11.4978C80.7456 11.8007 80.9362 12.1323 81.0667 12.4927C81.1973 12.853 81.2861 13.2055 81.3331 13.5501C81.3801 13.8948 81.4036 14.1977 81.4036 14.4588V19.1588H79.7429ZM73.7974 19.1588V10.6988H75.2623V13.1428H75.4581V19.1588H73.7974ZM86.679 19.3859C85.6503 19.3859 84.8121 19.1588 84.1645 18.7044C83.517 18.2501 83.1201 17.6104 82.9739 16.7853L84.6502 16.5268C84.7547 16.9655 84.9949 17.3127 85.3709 17.5686C85.7521 17.8193 86.2247 17.9446 86.7887 17.9446C87.3005 17.9446 87.7 17.8402 87.9872 17.6313C88.2796 17.4224 88.4259 17.1352 88.4259 16.7696C88.4259 16.5555 88.3736 16.3832 88.2692 16.2526C88.17 16.1169 87.9585 15.9889 87.6347 15.8688C87.3109 15.7487 86.8174 15.5999 86.1542 15.4223C85.4283 15.2343 84.8513 15.0332 84.423 14.8191C84 14.5998 83.6972 14.3465 83.5144 14.0593C83.3368 13.7669 83.248 13.4144 83.248 13.0018C83.248 12.49 83.3838 12.0435 83.6554 11.6623C83.9269 11.2811 84.3082 10.986 84.799 10.7772C85.2951 10.5683 85.8748 10.4638 86.538 10.4638C87.1856 10.4638 87.7626 10.5657 88.2692 10.7693C88.7757 10.973 89.1857 11.2628 89.499 11.6388C89.8123 12.0096 90.0003 12.4457 90.063 12.947L88.3867 13.2525C88.3292 12.8451 88.1386 12.524 87.8149 12.289C87.4911 12.054 87.0707 11.926 86.5537 11.9052C86.0576 11.8843 85.6555 11.9678 85.3474 12.1558C85.0393 12.3386 84.8852 12.5919 84.8852 12.9156C84.8852 13.1036 84.9427 13.2629 85.0575 13.3935C85.1776 13.524 85.4074 13.6494 85.7469 13.7695C86.0863 13.8896 86.5876 14.0332 87.2509 14.2003C87.9611 14.3831 88.5251 14.5868 88.9428 14.8113C89.3606 15.0306 89.6583 15.2944 89.8358 15.6025C90.0186 15.9054 90.11 16.2735 90.11 16.707C90.11 17.5425 89.8045 18.1979 89.1935 18.6731C88.5877 19.1483 87.7496 19.3859 86.679 19.3859ZM96.6842 19.1588C96.1516 19.2632 95.6293 19.3076 95.1176 19.2919C94.6058 19.2763 94.1488 19.1771 93.7467 18.9943C93.3446 18.8115 93.0417 18.5243 92.8381 18.1326C92.6553 17.7827 92.5561 17.4276 92.5404 17.0673C92.53 16.7017 92.5247 16.2892 92.5247 15.8296V8.34884H94.1697V15.7513C94.1697 16.0907 94.1723 16.3858 94.1776 16.6365C94.188 16.8871 94.2428 17.0986 94.3421 17.271C94.5301 17.5947 94.8277 17.7801 95.2351 17.8271C95.6476 17.8689 96.1307 17.8506 96.6842 17.7723V19.1588ZM90.9033 12.0148V10.6988H96.6842V12.0148H90.9033ZM100.857 19.3938C100.23 19.3938 99.7055 19.2789 99.2825 19.0491C98.8595 18.8141 98.5384 18.506 98.3191 18.1248C98.1049 17.7383 97.9979 17.3153 97.9979 16.8558C97.9979 16.4276 98.0736 16.0516 98.2251 15.7278C98.3765 15.404 98.601 15.1299 98.8987 14.9053C99.1964 14.6755 99.5619 14.4901 99.9954 14.3491C100.371 14.2395 100.797 14.1429 101.272 14.0593C101.747 13.9758 102.246 13.8974 102.768 13.8243C103.296 13.7512 103.818 13.6781 104.335 13.605L103.74 13.934C103.75 13.2708 103.609 12.7799 103.317 12.4613C103.029 12.1375 102.533 11.9757 101.828 11.9757C101.384 11.9757 100.977 12.0801 100.606 12.289C100.236 12.4927 99.9771 12.8321 99.8309 13.3073L98.3034 12.8373C98.5123 12.1114 98.9092 11.5344 99.494 11.1062C100.084 10.6779 100.867 10.4638 101.844 10.4638C102.601 10.4638 103.259 10.5944 103.818 10.8555C104.382 11.1114 104.795 11.5187 105.056 12.0775C105.191 12.3543 105.275 12.6467 105.306 12.9548C105.338 13.2629 105.353 13.5945 105.353 13.9496V19.1588H103.904V17.224L104.186 17.4746C103.836 18.1222 103.39 18.6052 102.847 18.9238C102.309 19.2371 101.646 19.3938 100.857 19.3938ZM101.147 18.0543C101.612 18.0543 102.011 17.9733 102.345 17.8115C102.68 17.6443 102.949 17.4328 103.152 17.177C103.356 16.9211 103.489 16.6547 103.552 16.378C103.64 16.1273 103.69 15.8453 103.701 15.532C103.716 15.2186 103.724 14.968 103.724 14.78L104.257 14.9758C103.74 15.0541 103.27 15.1246 102.847 15.1873C102.424 15.25 102.04 15.3126 101.695 15.3753C101.356 15.4327 101.053 15.5032 100.787 15.5868C100.562 15.6651 100.361 15.7591 100.183 15.8688C100.011 15.9785 99.8727 16.1116 99.7682 16.2683C99.669 16.425 99.6194 16.6156 99.6194 16.8401C99.6194 17.0595 99.6742 17.2631 99.7839 17.4511C99.8935 17.6339 100.061 17.7801 100.285 17.8898C100.51 17.9995 100.797 18.0543 101.147 18.0543Z" fill="#343434"/>
</svg>
